<svg data-v-423bf9ae="" xmlns="http://www.w3.org/2000/svg" viewBox="0 0 694.8034242301663 163" class="iconAbove"><!----><!----><!----><g data-v-423bf9ae="" id="da54276d-ee79-4833-abc9-1a268d16e600" fill="#1C300E" transform="matrix(5.7526364568010235,0,0,5.7526364568010235,0.7478536240995481,99.14573151098256)"><path d="M6.96 0.67L6.96 0.67L6.96 3.02L4.59 3.02L4.59 11.09L2.24 11.09L2.24 3.02L-0.13 3.02L-0.13 0.67L6.96 0.67ZM12.85 0.67L12.85 0.67L15.20 0.67L15.20 11.09L12.85 11.09L12.85 7.06L10.07 7.06L10.07 11.09L7.71 11.09L7.71 0.67L10.07 0.67L10.07 4.70L12.85 4.70L12.85 0.67ZM22.69 3.02L22.69 3.02L18.66 3.02L18.66 4.70L21.63 4.70L21.63 7.06L18.66 7.06L18.66 8.74L22.69 8.74L22.69 11.09L16.31 11.09L16.31 0.67L22.69 0.67L22.69 3.02ZM35.15 5.89L35.15 5.89L35.15 5.89Q35.83 6.24 36.23 6.90L36.23 6.90L36.23 6.90Q36.64 7.55 36.64 8.34L36.64 8.34L36.64 8.34Q36.64 8.92 36.42 9.42L36.42 9.42L36.42 9.42Q36.20 9.93 35.83 10.30L35.83 10.30L35.83 10.30Q35.46 10.67 34.96 10.89L34.96 10.89L34.96 10.89Q34.45 11.10 33.88 11.10L33.88 11.10L33.81 11.10L30.62 11.10L30.62 0.69L33.81 0.69L33.88 0.69L33.88 0.69Q34.45 0.69 34.96 0.90L34.96 0.90L34.96 0.90Q35.46 1.12 35.83 1.49L35.83 1.49L35.83 1.49Q36.20 1.86 36.42 2.37L36.42 2.37L36.42 2.37Q36.64 2.87 36.64 3.44L36.64 3.44L36.64 3.44Q36.64 4.24 36.23 4.89L36.23 4.89L36.23 4.89Q35.83 5.54 35.15 5.89ZM44.17 11.09L41.75 11.09L39.93 7.14L39.90 7.14L39.90 11.09L37.55 11.09L37.55 0.67L40.71 0.67L40.73 0.67L40.73 0.67Q41.40 0.67 41.99 0.92L41.99 0.92L41.99 0.92Q42.59 1.18 43.03 1.62L43.03 1.62L43.03 1.62Q43.47 2.06 43.72 2.65L43.72 2.65L43.72 2.65Q43.97 3.23 43.97 3.91L43.97 3.91L43.97 3.91Q43.97 4.86 43.48 5.62L43.48 5.62L43.48 5.62Q42.99 6.38 42.20 6.79L42.20 6.79L44.17 11.09ZM51.24 3.02L51.24 3.02L47.21 3.02L47.21 4.70L50.18 4.70L50.18 7.06L47.21 7.06L47.21 8.74L51.24 8.74L51.24 11.09L44.86 11.09L44.86 0.67L51.24 0.67L51.24 3.02ZM62.44 0.67L62.44 0.67L64.79 0.67L62.26 11.09L59.86 11.09L58.49 5.43L57.12 11.09L54.73 11.09L52.19 0.67L54.54 0.67L55.93 6.33L57.30 0.67L59.70 0.67L61.07 6.33L62.44 0.67ZM79.27 11.09L76.85 11.09L75.03 7.14L75.00 7.14L75.00 11.09L72.65 11.09L72.65 0.67L75.81 0.67L75.82 0.67L75.82 0.67Q76.50 0.67 77.09 0.92L77.09 0.92L77.09 0.92Q77.69 1.18 78.13 1.62L78.13 1.62L78.13 1.62Q78.57 2.06 78.82 2.65L78.82 2.65L78.82 2.65Q79.07 3.23 79.07 3.91L79.07 3.91L79.07 3.91Q79.07 4.86 78.58 5.62L78.58 5.62L78.58 5.62Q78.09 6.38 77.29 6.79L77.29 6.79L79.27 11.09ZM86.34 3.02L86.34 3.02L82.31 3.02L82.31 4.70L85.27 4.70L85.27 7.06L82.31 7.06L82.31 8.74L86.34 8.74L86.34 11.09L79.95 11.09L79.95 0.67L86.34 0.67L86.34 3.02ZM94.61 0.67L94.61 0.67L96.96 0.67L93.34 11.09L90.96 11.09L87.33 0.67L89.68 0.67L92.15 7.76L94.61 0.67ZM99.72 0.67L99.72 0.67L99.72 11.09L97.37 11.09L97.37 0.67L99.72 0.67ZM107.10 3.02L107.10 3.02L103.07 3.02L103.07 4.70L106.04 4.70L106.04 7.06L103.07 7.06L103.07 8.74L107.10 8.74L107.10 11.09L100.72 11.09L100.72 0.67L107.10 0.67L107.10 3.02ZM118.30 0.67L118.30 0.67L120.65 0.67L118.12 11.09L115.72 11.09L114.35 5.43L112.98 11.09L110.59 11.09L108.05 0.67L110.40 0.67L111.79 6.33L113.16 0.67L115.56 0.67L116.93 6.33L118.30 0.67Z"></path></g><defs data-v-423bf9ae=""><linearGradient data-v-423bf9ae="" gradientTransform="rotate(25)" id="655e9e5d-7185-4d2c-abd6-c2cc3cf840af" x1="0%" y1="0%" x2="100%" y2="0%"><stop data-v-423bf9ae="" offset="0%" style="stop-color: rgb(33, 105, 15); stop-opacity: 1;"></stop><stop data-v-423bf9ae="" offset="100%" style="stop-color: rgb(136, 200, 72); stop-opacity: 1;"></stop></linearGradient></defs><g data-v-423bf9ae="" id="7dcdd352-62fc-4e87-9b8a-5768c0308252" transform="matrix(1.7307692307692308,0,0,1.7307692307692308,292.8167172578665,-10.384615384615387)" stroke="none" fill="url(#655e9e5d-7185-4d2c-abd6-c2cc3cf840af)"><path d="M40.05 33.28l.17.31-.38 1.89A14.29 14.29 0 0 1 38 40.21a13.78 13.78 0 0 1-2 2.46l-.3.29a14.42 14.42 0 0 1-3.7 2.51A14.42 14.42 0 0 1 28.31 43l-.3-.29a14 14 0 0 1-3.85-7.19l-.38-1.89.17-.31c.28-.5.55-1 .81-1.52.09-.19.19-.37.28-.55.31-.65.62-1.31.9-2l.05.06.24.22c.34.33.69.64 1.06.94.14.12.29.23.44.34a11.91 11.91 0 0 0 1 .72l.45.28a14.23 14.23 0 0 0 1.55.81l.81.36a1.11 1.11 0 0 0 .84 0l.82-.36a15.06 15.06 0 0 0 1.54-.81c.16-.09.31-.19.46-.29.34-.22.68-.45 1-.7l.46-.35c.35-.29.68-.59 1-.9.09-.09.19-.17.28-.27a.12.12 0 0 0 0-.05c.28.68.59 1.34.91 2 .08.17.17.35.26.52.38.49.66 1.01.94 1.51zm-1.95-7.43c-.17.26-.34.51-.54.77a13.52 13.52 0 0 1-5.16 4.07l-.4.17-.39-.17a13.45 13.45 0 0 1-5.18-4.09c-.19-.24-.36-.49-.55-.77l-.06-.1a13.26 13.26 0 0 1-2.15-6.89c4.48-4.54 7-8.4 8.33-12.58 1.29 4.18 3.85 8 8.33 12.58a13.22 13.22 0 0 1-2.23 7.01zM25.44 6.73A26.43 26.43 0 0 1 29.9 6c-1.26 3.81-3.72 7.38-8 11.68l-3.13 2.77a21 21 0 0 1-6.46 3.94 21.86 21.86 0 0 1-3.72 1.05 20.35 20.35 0 0 1-2.38.31A26.6 26.6 0 0 1 25.44 6.73zM13.59 42.79l-.36-.79a39.1 39.1 0 0 1-3.38-14.69c.26-.06.52-.14.77-.21s.38-.1.57-.1c.62-.18 1.24-.38 1.86-.61a23.16 23.16 0 0 0 7.1-4.39l1.57-1.39a15.53 15.53 0 0 0 2.38 6.3l.06.09.27.39-.09.23c-.34.84-.7 1.67-1.09 2.49l-.13.25c-.42.86-.87 1.71-1.35 2.54-.12.21-.24.41-.38.62a39 39 0 0 1-6.44 8c-.27.27-.54.53-.83.79zm7 9.54a21.63 21.63 0 0 1-2.42-4.39 22.57 22.57 0 0 1-1.42-5.28c.51-.5 1-1 1.49-1.54l.11-.13c.51-.56 1-1.13 1.49-1.72l.48-.61c.35-.45.71-.92 1.05-1.39l.47-.67.3-.42c0 .17.08.33.13.5s.07.32.12.48l.21.66c.07.22.09.3.14.44s.18.46.28.69.1.26.16.38c.12.28.25.54.39.81 0 .07.07.15.11.23.18.34.38.67.58 1l.15.22.5.73.27.34.45.56c.11.13.23.25.34.37s.23.27.36.39c-.12.3-.24.58-.37.87s-.2.49-.32.73-.34.64-.51 1-.24.47-.38.7-.39.6-.59.9l-.44.67c-.29.39-.6.77-.91 1.15-.09.1-.17.22-.26.32-.32.38-.68.78-1.08 1.18zM32 58a17.9 17.9 0 0 1-7.35-6.9c.21-.26.4-.52.6-.79l.3-.39c.36-.52.71-1 1-1.59.08-.12.14-.24.21-.36.24-.43.48-.88.7-1.33.1-.19.18-.38.27-.57l.27-.57.11.08c.45.34.92.66 1.39 1l.41.24a17 17 0 0 0 1.65.84 1.09 1.09 0 0 0 .82 0 15.81 15.81 0 0 0 1.64-.84l.42-.25c.46-.28.91-.58 1.34-.9l.16-.12.27.57.27.58q.33.66.69 1.29c.07.13.14.27.22.4.32.53.66 1.06 1 1.57.1.14.21.27.32.41s.38.53.59.78A17.73 17.73 0 0 1 32 58zm13.79-10a21.9 21.9 0 0 1-2.42 4.39l-.88-.88c-.4-.4-.76-.8-1.09-1.19s-.8-1-1.17-1.48c-.12-.16-.23-.34-.34-.52-.24-.34-.47-.68-.68-1s-.24-.44-.36-.65-.37-.66-.53-1-.21-.49-.32-.73-.25-.57-.37-.86l.25-.27.18-.18c.17-.2.35-.4.53-.63a15.57 15.57 0 0 0 1.11-1.55c.11-.18.2-.37.31-.55.21-.37.43-.74.61-1.13.11-.23.19-.47.29-.7s.31-.71.43-1.08.14-.51.22-.77.19-.62.26-.94l.3.42.48.68c.34.46.68.92 1 1.36l.5.64c.45.55.92 1.1 1.4 1.63l.2.22c.48.52 1 1 1.48 1.53a22.57 22.57 0 0 1-1.39 5.18zm5-6l-.36.81-.53-.47c-.29-.26-.56-.52-.85-.81a39.07 39.07 0 0 1-6.43-8c-.13-.2-.25-.4-.38-.64-.48-.81-.92-1.65-1.34-2.5l-.13-.27c-.4-.81-.75-1.64-1.09-2.48l-.09-.23.27-.39a15.37 15.37 0 0 0 2.44-6.39L43.85 22c.38.34.77.67 1.17 1l.42.31.82.58.52.34c.25.16.5.32.76.47l.58.32c.25.14.5.28.75.4l.63.3c.24.11.49.23.75.33s.43.18.65.27l.76.28.68.22.78.23.68.17.35.1A39.1 39.1 0 0 1 50.77 42zm4.64-16.55a21.11 21.11 0 0 1-10.18-5l-3.12-2.77c-4.29-4.3-6.75-7.87-8-11.68A26.64 26.64 0 0 1 57.8 25.75a18.82 18.82 0 0 1-2.39-.32z" data-name="1"></path></g><!----></svg>